<mxfile host="app.diagrams.net" modified="2024-01-11T22:41:55.391Z" agent="Mozilla/5.0 (X11; Linux x86_64; rv:121.0) Gecko/20100101 Firefox/121.0" etag="hy_o4jyhtpnBgbGjDtJd" version="22.1.18" type="device">
  <diagram name="Page-1" id="MCJK4jgtEe_C2rkBzd83">
    <mxGraphModel dx="1434" dy="1896" grid="1" gridSize="10" guides="1" tooltips="1" connect="1" arrows="1" fold="1" page="1" pageScale="1" pageWidth="850" pageHeight="1100" math="0" shadow="0">
      <root>
        <mxCell id="0" />
        <mxCell id="1" parent="0" />
        <mxCell id="AW4RBXtIGRO_C34-2rIb-40" style="edgeStyle=orthogonalEdgeStyle;rounded=0;orthogonalLoop=1;jettySize=auto;html=1;exitX=0.5;exitY=1;exitDx=0;exitDy=0;entryX=0.5;entryY=0;entryDx=0;entryDy=0;" edge="1" parent="1" source="AW4RBXtIGRO_C34-2rIb-2" target="AW4RBXtIGRO_C34-2rIb-3">
          <mxGeometry relative="1" as="geometry">
            <Array as="points">
              <mxPoint x="125" y="170" />
              <mxPoint x="230" y="170" />
              <mxPoint x="230" y="10" />
              <mxPoint x="390" y="10" />
            </Array>
          </mxGeometry>
        </mxCell>
        <mxCell id="AW4RBXtIGRO_C34-2rIb-45" style="edgeStyle=orthogonalEdgeStyle;rounded=0;orthogonalLoop=1;jettySize=auto;html=1;exitX=0.5;exitY=1;exitDx=0;exitDy=0;entryX=0;entryY=0.5;entryDx=0;entryDy=0;" edge="1" parent="1" source="AW4RBXtIGRO_C34-2rIb-2" target="AW4RBXtIGRO_C34-2rIb-44">
          <mxGeometry relative="1" as="geometry">
            <Array as="points">
              <mxPoint x="125" y="190" />
              <mxPoint x="290" y="190" />
            </Array>
          </mxGeometry>
        </mxCell>
        <mxCell id="AW4RBXtIGRO_C34-2rIb-46" value="errorMessage === &quot;&quot;" style="edgeLabel;html=1;align=center;verticalAlign=middle;resizable=0;points=[];" vertex="1" connectable="0" parent="AW4RBXtIGRO_C34-2rIb-45">
          <mxGeometry x="0.2878" y="-2" relative="1" as="geometry">
            <mxPoint as="offset" />
          </mxGeometry>
        </mxCell>
        <mxCell id="AW4RBXtIGRO_C34-2rIb-48" style="edgeStyle=orthogonalEdgeStyle;rounded=0;orthogonalLoop=1;jettySize=auto;html=1;exitX=0.5;exitY=1;exitDx=0;exitDy=0;entryX=0;entryY=0.5;entryDx=0;entryDy=0;" edge="1" parent="1" source="AW4RBXtIGRO_C34-2rIb-2" target="AW4RBXtIGRO_C34-2rIb-47">
          <mxGeometry relative="1" as="geometry">
            <Array as="points">
              <mxPoint x="125" y="225" />
            </Array>
          </mxGeometry>
        </mxCell>
        <mxCell id="AW4RBXtIGRO_C34-2rIb-50" value="errorMessage !== &quot;&quot;" style="edgeLabel;html=1;align=center;verticalAlign=middle;resizable=0;points=[];" vertex="1" connectable="0" parent="AW4RBXtIGRO_C34-2rIb-48">
          <mxGeometry x="0.4" y="-2" relative="1" as="geometry">
            <mxPoint as="offset" />
          </mxGeometry>
        </mxCell>
        <mxCell id="AW4RBXtIGRO_C34-2rIb-52" style="edgeStyle=orthogonalEdgeStyle;rounded=0;orthogonalLoop=1;jettySize=auto;html=1;exitX=0.25;exitY=1;exitDx=0;exitDy=0;entryX=0.25;entryY=0;entryDx=0;entryDy=0;" edge="1" parent="1" source="AW4RBXtIGRO_C34-2rIb-2" target="AW4RBXtIGRO_C34-2rIb-43">
          <mxGeometry relative="1" as="geometry" />
        </mxCell>
        <mxCell id="AW4RBXtIGRO_C34-2rIb-2" value="&lt;div align=&quot;center&quot;&gt;&lt;font face=&quot;Helvetica&quot;&gt;&amp;lt;App/&amp;gt;&lt;/font&gt;&lt;/div&gt;&lt;div align=&quot;left&quot;&gt;&lt;ul&gt;&lt;li&gt;&lt;font face=&quot;Jhb9Z775Hq082QTf8Nlu&quot;&gt;songs&lt;/font&gt;&lt;/li&gt;&lt;li&gt;&lt;font face=&quot;Jhb9Z775Hq082QTf8Nlu&quot;&gt;filterParams (ref)&lt;br&gt;&lt;/font&gt;&lt;/li&gt;&lt;li&gt;&lt;font face=&quot;Jhb9Z775Hq082QTf8Nlu&quot;&gt;errorMessage&lt;/font&gt;&lt;/li&gt;&lt;li&gt;&lt;font face=&quot;Jhb9Z775Hq082QTf8Nlu&quot;&gt;currentlyPlayingSong&lt;/font&gt;&lt;/li&gt;&lt;li&gt;&lt;font face=&quot;Jhb9Z775Hq082QTf8Nlu&quot;&gt;autoPlayOn&lt;/font&gt;&lt;/li&gt;&lt;li&gt;&lt;font face=&quot;Jhb9Z775Hq082QTf8Nlu&quot;&gt;topVisibleSongIndex&lt;/font&gt; (ref)&lt;br&gt;&lt;/li&gt;&lt;li&gt;&lt;font face=&quot;Jhb9Z775Hq082QTf8Nlu&quot;&gt;controlsExpanded&lt;br&gt;&lt;/font&gt;&lt;/li&gt;&lt;/ul&gt;&lt;/div&gt;" style="rounded=1;whiteSpace=wrap;html=1;align=left;" vertex="1" parent="1">
          <mxGeometry x="30" y="20" width="190" height="140" as="geometry" />
        </mxCell>
        <mxCell id="AW4RBXtIGRO_C34-2rIb-38" style="edgeStyle=orthogonalEdgeStyle;rounded=0;orthogonalLoop=1;jettySize=auto;html=1;exitX=0.5;exitY=1;exitDx=0;exitDy=0;entryX=0.5;entryY=0;entryDx=0;entryDy=0;" edge="1" parent="1" source="AW4RBXtIGRO_C34-2rIb-3" target="AW4RBXtIGRO_C34-2rIb-6">
          <mxGeometry relative="1" as="geometry" />
        </mxCell>
        <mxCell id="AW4RBXtIGRO_C34-2rIb-39" style="edgeStyle=orthogonalEdgeStyle;rounded=0;orthogonalLoop=1;jettySize=auto;html=1;exitX=0.25;exitY=1;exitDx=0;exitDy=0;entryX=0.5;entryY=0;entryDx=0;entryDy=0;" edge="1" parent="1" source="AW4RBXtIGRO_C34-2rIb-3" target="AW4RBXtIGRO_C34-2rIb-4">
          <mxGeometry relative="1" as="geometry" />
        </mxCell>
        <mxCell id="AW4RBXtIGRO_C34-2rIb-3" value="&lt;div&gt;&amp;lt;Controls/&amp;gt;&lt;/div&gt;&lt;div&gt;({controlsExpanded, toggleControls, width, isMobile})&lt;/div&gt;" style="rounded=1;whiteSpace=wrap;html=1;" vertex="1" parent="1">
          <mxGeometry x="240" y="30" width="300" height="40" as="geometry" />
        </mxCell>
        <mxCell id="AW4RBXtIGRO_C34-2rIb-4" value="&amp;lt;PauseButton/&amp;gt;" style="rounded=1;whiteSpace=wrap;html=1;" vertex="1" parent="1">
          <mxGeometry x="275" y="100" width="85" height="30" as="geometry" />
        </mxCell>
        <mxCell id="AW4RBXtIGRO_C34-2rIb-23" style="edgeStyle=orthogonalEdgeStyle;rounded=0;orthogonalLoop=1;jettySize=auto;html=1;exitX=0.5;exitY=1;exitDx=0;exitDy=0;entryX=1;entryY=0.5;entryDx=0;entryDy=0;" edge="1" parent="1" source="AW4RBXtIGRO_C34-2rIb-6" target="AW4RBXtIGRO_C34-2rIb-9">
          <mxGeometry relative="1" as="geometry">
            <Array as="points">
              <mxPoint x="690" y="80" />
              <mxPoint x="690" y="155" />
            </Array>
          </mxGeometry>
        </mxCell>
        <mxCell id="AW4RBXtIGRO_C34-2rIb-28" style="edgeStyle=orthogonalEdgeStyle;rounded=0;orthogonalLoop=1;jettySize=auto;html=1;exitX=0;exitY=0.5;exitDx=0;exitDy=0;entryX=1;entryY=0.5;entryDx=0;entryDy=0;" edge="1" parent="1" source="AW4RBXtIGRO_C34-2rIb-6" target="AW4RBXtIGRO_C34-2rIb-7">
          <mxGeometry relative="1" as="geometry">
            <Array as="points">
              <mxPoint x="600" y="50" />
              <mxPoint x="600" y="110" />
              <mxPoint x="530" y="110" />
            </Array>
          </mxGeometry>
        </mxCell>
        <mxCell id="AW4RBXtIGRO_C34-2rIb-29" value="!expanded" style="edgeLabel;html=1;align=center;verticalAlign=middle;resizable=0;points=[];" vertex="1" connectable="0" parent="AW4RBXtIGRO_C34-2rIb-28">
          <mxGeometry x="0.216" y="-1" relative="1" as="geometry">
            <mxPoint as="offset" />
          </mxGeometry>
        </mxCell>
        <mxCell id="AW4RBXtIGRO_C34-2rIb-30" style="edgeStyle=orthogonalEdgeStyle;rounded=0;orthogonalLoop=1;jettySize=auto;html=1;exitX=0.5;exitY=1;exitDx=0;exitDy=0;entryX=0.5;entryY=0;entryDx=0;entryDy=0;" edge="1" parent="1" source="AW4RBXtIGRO_C34-2rIb-6" target="AW4RBXtIGRO_C34-2rIb-10">
          <mxGeometry relative="1" as="geometry">
            <Array as="points">
              <mxPoint x="690" y="80" />
              <mxPoint x="690" y="180" />
            </Array>
          </mxGeometry>
        </mxCell>
        <mxCell id="AW4RBXtIGRO_C34-2rIb-31" style="edgeStyle=orthogonalEdgeStyle;rounded=0;orthogonalLoop=1;jettySize=auto;html=1;exitX=0.5;exitY=1;exitDx=0;exitDy=0;entryX=0.5;entryY=0;entryDx=0;entryDy=0;" edge="1" parent="1" source="AW4RBXtIGRO_C34-2rIb-6" target="AW4RBXtIGRO_C34-2rIb-11">
          <mxGeometry relative="1" as="geometry">
            <Array as="points">
              <mxPoint x="690" y="80" />
              <mxPoint x="690" y="180" />
            </Array>
          </mxGeometry>
        </mxCell>
        <mxCell id="AW4RBXtIGRO_C34-2rIb-36" style="edgeStyle=orthogonalEdgeStyle;rounded=0;orthogonalLoop=1;jettySize=auto;html=1;exitX=0.5;exitY=1;exitDx=0;exitDy=0;entryX=0.5;entryY=0;entryDx=0;entryDy=0;" edge="1" parent="1" source="AW4RBXtIGRO_C34-2rIb-6" target="AW4RBXtIGRO_C34-2rIb-12">
          <mxGeometry relative="1" as="geometry">
            <Array as="points">
              <mxPoint x="788" y="80" />
              <mxPoint x="788" y="90" />
            </Array>
          </mxGeometry>
        </mxCell>
        <mxCell id="AW4RBXtIGRO_C34-2rIb-42" style="edgeStyle=orthogonalEdgeStyle;rounded=0;orthogonalLoop=1;jettySize=auto;html=1;exitX=0.5;exitY=1;exitDx=0;exitDy=0;entryX=1;entryY=0.5;entryDx=0;entryDy=0;" edge="1" parent="1" source="AW4RBXtIGRO_C34-2rIb-6" target="AW4RBXtIGRO_C34-2rIb-8">
          <mxGeometry relative="1" as="geometry" />
        </mxCell>
        <mxCell id="AW4RBXtIGRO_C34-2rIb-6" value="&lt;div&gt;&amp;lt;FilterMenu/&amp;gt;&lt;/div&gt;&lt;div&gt;({expanded, toggleExpanded})&lt;/div&gt;" style="rounded=1;whiteSpace=wrap;html=1;" vertex="1" parent="1">
          <mxGeometry x="620" y="20" width="170" height="60" as="geometry" />
        </mxCell>
        <mxCell id="AW4RBXtIGRO_C34-2rIb-7" value="&lt;div&gt;sliders icon&lt;/div&gt;" style="text;html=1;strokeColor=none;fillColor=none;align=center;verticalAlign=middle;whiteSpace=wrap;rounded=0;" vertex="1" parent="1">
          <mxGeometry x="455" y="100" width="60" height="30" as="geometry" />
        </mxCell>
        <mxCell id="AW4RBXtIGRO_C34-2rIb-8" value="&lt;div&gt;X icon&lt;/div&gt;" style="text;html=1;strokeColor=none;fillColor=none;align=center;verticalAlign=middle;whiteSpace=wrap;rounded=0;" vertex="1" parent="1">
          <mxGeometry x="620" y="100" width="60" height="30" as="geometry" />
        </mxCell>
        <mxCell id="AW4RBXtIGRO_C34-2rIb-27" style="edgeStyle=orthogonalEdgeStyle;rounded=0;orthogonalLoop=1;jettySize=auto;html=1;exitX=0;exitY=0.5;exitDx=0;exitDy=0;entryX=1;entryY=0.5;entryDx=0;entryDy=0;" edge="1" parent="1" source="AW4RBXtIGRO_C34-2rIb-9" target="AW4RBXtIGRO_C34-2rIb-13">
          <mxGeometry relative="1" as="geometry" />
        </mxCell>
        <mxCell id="AW4RBXtIGRO_C34-2rIb-9" value="&amp;lt;AutoPlayToggle/&amp;gt;" style="rounded=1;whiteSpace=wrap;html=1;" vertex="1" parent="1">
          <mxGeometry x="550" y="140" width="120" height="30" as="geometry" />
        </mxCell>
        <mxCell id="AW4RBXtIGRO_C34-2rIb-33" style="edgeStyle=orthogonalEdgeStyle;rounded=0;orthogonalLoop=1;jettySize=auto;html=1;exitX=0.5;exitY=1;exitDx=0;exitDy=0;entryX=0.5;entryY=0;entryDx=0;entryDy=0;" edge="1" parent="1" source="AW4RBXtIGRO_C34-2rIb-10" target="AW4RBXtIGRO_C34-2rIb-15">
          <mxGeometry relative="1" as="geometry" />
        </mxCell>
        <mxCell id="AW4RBXtIGRO_C34-2rIb-10" value="&amp;lt;DateRange/&amp;gt;" style="rounded=1;whiteSpace=wrap;html=1;" vertex="1" parent="1">
          <mxGeometry x="550" y="190" width="110" height="30" as="geometry" />
        </mxCell>
        <mxCell id="AW4RBXtIGRO_C34-2rIb-34" style="edgeStyle=orthogonalEdgeStyle;rounded=0;orthogonalLoop=1;jettySize=auto;html=1;exitX=0.5;exitY=1;exitDx=0;exitDy=0;entryX=0.5;entryY=0;entryDx=0;entryDy=0;" edge="1" parent="1" source="AW4RBXtIGRO_C34-2rIb-11" target="AW4RBXtIGRO_C34-2rIb-15">
          <mxGeometry relative="1" as="geometry" />
        </mxCell>
        <mxCell id="AW4RBXtIGRO_C34-2rIb-11" value="&amp;lt;PopularityRange/&amp;gt;" style="rounded=1;whiteSpace=wrap;html=1;" vertex="1" parent="1">
          <mxGeometry x="670" y="190" width="110" height="30" as="geometry" />
        </mxCell>
        <mxCell id="AW4RBXtIGRO_C34-2rIb-12" value="&lt;div align=&quot;center&quot; style=&quot;line-height: 30%;&quot;&gt;&amp;lt;GenreList/&amp;gt;&lt;/div&gt;&lt;div align=&quot;center&quot;&gt;&lt;ul&gt;&lt;li&gt;selectedGenres&lt;/li&gt;&lt;/ul&gt;&lt;/div&gt;" style="rounded=1;whiteSpace=wrap;html=1;align=center;" vertex="1" parent="1">
          <mxGeometry x="725" y="340" width="125" height="60" as="geometry" />
        </mxCell>
        <mxCell id="AW4RBXtIGRO_C34-2rIb-13" value="&amp;lt;ToggleButton/&amp;gt;" style="rounded=1;whiteSpace=wrap;html=1;" vertex="1" parent="1">
          <mxGeometry x="440" y="140" width="90" height="30" as="geometry" />
        </mxCell>
        <mxCell id="AW4RBXtIGRO_C34-2rIb-35" style="edgeStyle=orthogonalEdgeStyle;rounded=0;orthogonalLoop=1;jettySize=auto;html=1;exitX=0.5;exitY=1;exitDx=0;exitDy=0;entryX=0.5;entryY=0;entryDx=0;entryDy=0;" edge="1" parent="1" source="AW4RBXtIGRO_C34-2rIb-15" target="AW4RBXtIGRO_C34-2rIb-16">
          <mxGeometry relative="1" as="geometry" />
        </mxCell>
        <mxCell id="AW4RBXtIGRO_C34-2rIb-15" value="&lt;div&gt;&amp;lt;FilterRange/&amp;gt;&lt;/div&gt;&lt;div&gt;({cssClassName, label, bounds, filterParamsPrefix})&lt;br&gt;&lt;/div&gt;" style="rounded=1;whiteSpace=wrap;html=1;" vertex="1" parent="1">
          <mxGeometry x="520" y="250" width="260" height="40" as="geometry" />
        </mxCell>
        <mxCell id="AW4RBXtIGRO_C34-2rIb-16" value="&amp;lt;MultiRangeSlider/&amp;gt;" style="rounded=1;whiteSpace=wrap;html=1;" vertex="1" parent="1">
          <mxGeometry x="590" y="310" width="120" height="60" as="geometry" />
        </mxCell>
        <mxCell id="AW4RBXtIGRO_C34-2rIb-68" style="edgeStyle=orthogonalEdgeStyle;rounded=0;orthogonalLoop=1;jettySize=auto;html=1;exitX=0.5;exitY=1;exitDx=0;exitDy=0;entryX=0.5;entryY=0;entryDx=0;entryDy=0;" edge="1" parent="1" source="AW4RBXtIGRO_C34-2rIb-43" target="AW4RBXtIGRO_C34-2rIb-58">
          <mxGeometry relative="1" as="geometry" />
        </mxCell>
        <mxCell id="AW4RBXtIGRO_C34-2rIb-43" value="&lt;div&gt;&amp;lt;SongList/&amp;gt;&lt;/div&gt;&lt;div&gt;({songs, scrollToTopVisibleSong})&lt;/div&gt;&lt;div&gt;&lt;ul&gt;&lt;li&gt;width&lt;/li&gt;&lt;li&gt;songHeights&lt;/li&gt;&lt;/ul&gt;&lt;/div&gt;" style="rounded=1;whiteSpace=wrap;html=1;" vertex="1" parent="1">
          <mxGeometry x="20" y="240" width="180" height="100" as="geometry" />
        </mxCell>
        <mxCell id="AW4RBXtIGRO_C34-2rIb-44" value="&amp;lt;Loader/&amp;gt;" style="rounded=1;whiteSpace=wrap;html=1;" vertex="1" parent="1">
          <mxGeometry x="290" y="180" width="70" height="20" as="geometry" />
        </mxCell>
        <mxCell id="AW4RBXtIGRO_C34-2rIb-47" value="&amp;lt;div&amp;gt;{errorMessage}&amp;lt;/div&amp;gt;" style="text;html=1;strokeColor=none;fillColor=none;align=center;verticalAlign=middle;whiteSpace=wrap;rounded=0;" vertex="1" parent="1">
          <mxGeometry x="290" y="210" width="140" height="30" as="geometry" />
        </mxCell>
        <mxCell id="AW4RBXtIGRO_C34-2rIb-58" value="&lt;div&gt;&amp;lt;Song/&amp;gt;&lt;/div&gt;&lt;div&gt;({key, song, index, reportHeight, coord, width}) &lt;br&gt;&lt;/div&gt;&lt;div&gt;&lt;ul&gt;&lt;li&gt;previewDisabledMessageVisible&lt;br&gt;&lt;/li&gt;&lt;/ul&gt;&lt;/div&gt;" style="rounded=1;whiteSpace=wrap;html=1;" vertex="1" parent="1">
          <mxGeometry x="20" y="360" width="200" height="90" as="geometry" />
        </mxCell>
        <mxCell id="AW4RBXtIGRO_C34-2rIb-63" value="&lt;div&gt;&amp;lt;SongArtwork/&amp;gt;&lt;/div&gt;({url, hasPreview, previewDisabledMessageVisible})" style="rounded=1;whiteSpace=wrap;html=1;" vertex="1" parent="1">
          <mxGeometry x="250" y="250" width="180" height="60" as="geometry" />
        </mxCell>
        <mxCell id="AW4RBXtIGRO_C34-2rIb-64" value="&lt;div&gt;&amp;lt;Song/&amp;gt;&lt;/div&gt;&lt;div&gt;({key, song, index, reportHeight, coord, width}) &lt;br&gt;&lt;/div&gt;&lt;div&gt;&lt;ul&gt;&lt;li&gt;previewDisabledMessageVisible&lt;br&gt;&lt;/li&gt;&lt;/ul&gt;&lt;/div&gt;" style="rounded=1;whiteSpace=wrap;html=1;" vertex="1" parent="1">
          <mxGeometry x="30" y="370" width="200" height="90" as="geometry" />
        </mxCell>
        <mxCell id="AW4RBXtIGRO_C34-2rIb-65" value="&lt;div&gt;&amp;lt;Song/&amp;gt;&lt;/div&gt;&lt;div&gt;({key, song, index, reportHeight, coord, width}) &lt;br&gt;&lt;/div&gt;&lt;div&gt;&lt;ul&gt;&lt;li&gt;previewDisabledMessageVisible&lt;br&gt;&lt;/li&gt;&lt;/ul&gt;&lt;/div&gt;" style="rounded=1;whiteSpace=wrap;html=1;" vertex="1" parent="1">
          <mxGeometry x="40" y="380" width="200" height="90" as="geometry" />
        </mxCell>
        <mxCell id="AW4RBXtIGRO_C34-2rIb-66" value="&lt;div&gt;&amp;lt;Song/&amp;gt;&lt;/div&gt;&lt;div&gt;({key, song, index, reportHeight, coord, width}) &lt;br&gt;&lt;/div&gt;&lt;div&gt;&lt;ul&gt;&lt;li&gt;previewDisabledMessageVisible&lt;br&gt;&lt;/li&gt;&lt;/ul&gt;&lt;/div&gt;" style="rounded=1;whiteSpace=wrap;html=1;" vertex="1" parent="1">
          <mxGeometry x="50" y="390" width="200" height="90" as="geometry" />
        </mxCell>
        <mxCell id="AW4RBXtIGRO_C34-2rIb-69" style="edgeStyle=orthogonalEdgeStyle;rounded=0;orthogonalLoop=1;jettySize=auto;html=1;exitX=1;exitY=0.5;exitDx=0;exitDy=0;entryX=0.25;entryY=1;entryDx=0;entryDy=0;" edge="1" parent="1" source="AW4RBXtIGRO_C34-2rIb-67" target="AW4RBXtIGRO_C34-2rIb-63">
          <mxGeometry relative="1" as="geometry" />
        </mxCell>
        <mxCell id="AW4RBXtIGRO_C34-2rIb-73" style="edgeStyle=orthogonalEdgeStyle;rounded=0;orthogonalLoop=1;jettySize=auto;html=1;exitX=1;exitY=0.5;exitDx=0;exitDy=0;entryX=0;entryY=0.5;entryDx=0;entryDy=0;" edge="1" parent="1" source="AW4RBXtIGRO_C34-2rIb-67" target="AW4RBXtIGRO_C34-2rIb-70">
          <mxGeometry relative="1" as="geometry" />
        </mxCell>
        <mxCell id="AW4RBXtIGRO_C34-2rIb-74" value="hasPreview?" style="edgeLabel;html=1;align=center;verticalAlign=middle;resizable=0;points=[];" vertex="1" connectable="0" parent="AW4RBXtIGRO_C34-2rIb-73">
          <mxGeometry x="0.1227" y="-1" relative="1" as="geometry">
            <mxPoint x="1" as="offset" />
          </mxGeometry>
        </mxCell>
        <mxCell id="AW4RBXtIGRO_C34-2rIb-77" style="edgeStyle=orthogonalEdgeStyle;rounded=0;orthogonalLoop=1;jettySize=auto;html=1;exitX=0.5;exitY=1;exitDx=0;exitDy=0;" edge="1" parent="1" source="AW4RBXtIGRO_C34-2rIb-67" target="AW4RBXtIGRO_C34-2rIb-76">
          <mxGeometry relative="1" as="geometry" />
        </mxCell>
        <mxCell id="AW4RBXtIGRO_C34-2rIb-128" style="edgeStyle=orthogonalEdgeStyle;rounded=0;orthogonalLoop=1;jettySize=auto;html=1;exitX=0.25;exitY=1;exitDx=0;exitDy=0;entryX=0;entryY=0.5;entryDx=0;entryDy=0;" edge="1" parent="1" source="AW4RBXtIGRO_C34-2rIb-67" target="AW4RBXtIGRO_C34-2rIb-127">
          <mxGeometry relative="1" as="geometry">
            <Array as="points">
              <mxPoint x="110" y="510" />
              <mxPoint x="10" y="510" />
              <mxPoint x="10" y="815" />
            </Array>
          </mxGeometry>
        </mxCell>
        <mxCell id="AW4RBXtIGRO_C34-2rIb-67" value="&lt;div&gt;&amp;lt;Song/&amp;gt;&lt;/div&gt;&lt;div&gt;({key, song, index, reportHeight, coord, width}) &lt;br&gt;&lt;/div&gt;&lt;div&gt;&lt;ul&gt;&lt;li&gt;previewDisabledMessageVisible&lt;br&gt;&lt;/li&gt;&lt;/ul&gt;&lt;/div&gt;" style="rounded=1;whiteSpace=wrap;html=1;" vertex="1" parent="1">
          <mxGeometry x="60" y="400" width="200" height="90" as="geometry" />
        </mxCell>
        <mxCell id="AW4RBXtIGRO_C34-2rIb-70" value="&lt;div&gt;&amp;lt;AudioPlayer/&amp;gt;&lt;/div&gt;&lt;div&gt;({id, url, isPlaying})&lt;br&gt;&lt;/div&gt;" style="rounded=1;whiteSpace=wrap;html=1;" vertex="1" parent="1">
          <mxGeometry x="395" y="330" width="120" height="60" as="geometry" />
        </mxCell>
        <mxCell id="AW4RBXtIGRO_C34-2rIb-79" style="edgeStyle=orthogonalEdgeStyle;rounded=0;orthogonalLoop=1;jettySize=auto;html=1;exitX=1;exitY=0.5;exitDx=0;exitDy=0;entryX=0;entryY=0.5;entryDx=0;entryDy=0;" edge="1" parent="1" source="AW4RBXtIGRO_C34-2rIb-76" target="AW4RBXtIGRO_C34-2rIb-78">
          <mxGeometry relative="1" as="geometry" />
        </mxCell>
        <mxCell id="AW4RBXtIGRO_C34-2rIb-80" value="song.title" style="edgeLabel;html=1;align=center;verticalAlign=middle;resizable=0;points=[];" vertex="1" connectable="0" parent="AW4RBXtIGRO_C34-2rIb-79">
          <mxGeometry x="0.1846" y="-4" relative="1" as="geometry">
            <mxPoint as="offset" />
          </mxGeometry>
        </mxCell>
        <mxCell id="AW4RBXtIGRO_C34-2rIb-82" style="edgeStyle=orthogonalEdgeStyle;rounded=0;orthogonalLoop=1;jettySize=auto;html=1;exitX=1;exitY=0.5;exitDx=0;exitDy=0;entryX=0;entryY=0.5;entryDx=0;entryDy=0;" edge="1" parent="1" source="AW4RBXtIGRO_C34-2rIb-76" target="AW4RBXtIGRO_C34-2rIb-81">
          <mxGeometry relative="1" as="geometry" />
        </mxCell>
        <mxCell id="AW4RBXtIGRO_C34-2rIb-95" style="edgeStyle=orthogonalEdgeStyle;rounded=0;orthogonalLoop=1;jettySize=auto;html=1;exitX=0.5;exitY=1;exitDx=0;exitDy=0;entryX=0;entryY=0.5;entryDx=0;entryDy=0;" edge="1" parent="1" source="AW4RBXtIGRO_C34-2rIb-76" target="AW4RBXtIGRO_C34-2rIb-93">
          <mxGeometry relative="1" as="geometry" />
        </mxCell>
        <mxCell id="AW4RBXtIGRO_C34-2rIb-110" style="edgeStyle=orthogonalEdgeStyle;rounded=0;orthogonalLoop=1;jettySize=auto;html=1;exitX=0.5;exitY=1;exitDx=0;exitDy=0;entryX=0.25;entryY=0;entryDx=0;entryDy=0;" edge="1" parent="1" source="AW4RBXtIGRO_C34-2rIb-76" target="AW4RBXtIGRO_C34-2rIb-109">
          <mxGeometry relative="1" as="geometry">
            <Array as="points">
              <mxPoint x="160" y="610" />
              <mxPoint x="50" y="610" />
            </Array>
          </mxGeometry>
        </mxCell>
        <mxCell id="AW4RBXtIGRO_C34-2rIb-111" value="songs.genres.length &amp;gt; 0?" style="edgeLabel;html=1;align=center;verticalAlign=middle;resizable=0;points=[];" vertex="1" connectable="0" parent="AW4RBXtIGRO_C34-2rIb-110">
          <mxGeometry x="0.4" y="4" relative="1" as="geometry">
            <mxPoint as="offset" />
          </mxGeometry>
        </mxCell>
        <mxCell id="AW4RBXtIGRO_C34-2rIb-76" value="&lt;div&gt;&amp;lt;SongInfo/&amp;gt;&lt;/div&gt;&lt;div&gt;({song})&lt;/div&gt;" style="rounded=1;whiteSpace=wrap;html=1;" vertex="1" parent="1">
          <mxGeometry x="110" y="540" width="100" height="40" as="geometry" />
        </mxCell>
        <mxCell id="AW4RBXtIGRO_C34-2rIb-78" value="&lt;div&gt;&amp;lt;SongInfoLink/&amp;gt;&lt;/div&gt;&lt;div&gt;({infoJson})&lt;br&gt;&lt;/div&gt;" style="rounded=1;whiteSpace=wrap;html=1;" vertex="1" parent="1">
          <mxGeometry x="280" y="480" width="100" height="40" as="geometry" />
        </mxCell>
        <mxCell id="AW4RBXtIGRO_C34-2rIb-88" style="edgeStyle=orthogonalEdgeStyle;rounded=0;orthogonalLoop=1;jettySize=auto;html=1;exitX=1;exitY=0.5;exitDx=0;exitDy=0;entryX=0;entryY=0.5;entryDx=0;entryDy=0;" edge="1" parent="1" source="AW4RBXtIGRO_C34-2rIb-81" target="AW4RBXtIGRO_C34-2rIb-87">
          <mxGeometry relative="1" as="geometry" />
        </mxCell>
        <mxCell id="AW4RBXtIGRO_C34-2rIb-89" style="edgeStyle=orthogonalEdgeStyle;rounded=0;orthogonalLoop=1;jettySize=auto;html=1;exitX=1;exitY=0.5;exitDx=0;exitDy=0;entryX=0;entryY=0.5;entryDx=0;entryDy=0;" edge="1" parent="1" source="AW4RBXtIGRO_C34-2rIb-81" target="AW4RBXtIGRO_C34-2rIb-86">
          <mxGeometry relative="1" as="geometry">
            <Array as="points">
              <mxPoint x="370" y="560" />
              <mxPoint x="370" y="590" />
            </Array>
          </mxGeometry>
        </mxCell>
        <mxCell id="AW4RBXtIGRO_C34-2rIb-90" value="song artists" style="edgeLabel;html=1;align=center;verticalAlign=middle;resizable=0;points=[];" vertex="1" connectable="0" parent="AW4RBXtIGRO_C34-2rIb-89">
          <mxGeometry x="0.4154" y="-1" relative="1" as="geometry">
            <mxPoint as="offset" />
          </mxGeometry>
        </mxCell>
        <mxCell id="AW4RBXtIGRO_C34-2rIb-81" value="&amp;lt;IconLine/&amp;gt;" style="rounded=1;whiteSpace=wrap;html=1;" vertex="1" parent="1">
          <mxGeometry x="280" y="545" width="80" height="30" as="geometry" />
        </mxCell>
        <mxCell id="AW4RBXtIGRO_C34-2rIb-86" value="&lt;div&gt;&amp;lt;SongInfoLink/&amp;gt;&lt;/div&gt;&lt;div&gt;({infoJson})&lt;br&gt;&lt;/div&gt;" style="rounded=1;whiteSpace=wrap;html=1;" vertex="1" parent="1">
          <mxGeometry x="440" y="570" width="100" height="40" as="geometry" />
        </mxCell>
        <mxCell id="AW4RBXtIGRO_C34-2rIb-87" value="&lt;div&gt;artist icon&lt;/div&gt;" style="text;html=1;strokeColor=none;fillColor=none;align=center;verticalAlign=middle;whiteSpace=wrap;rounded=0;" vertex="1" parent="1">
          <mxGeometry x="410" y="520" width="60" height="30" as="geometry" />
        </mxCell>
        <mxCell id="AW4RBXtIGRO_C34-2rIb-91" value="&lt;div&gt;&amp;lt;SongInfoLink/&amp;gt;&lt;/div&gt;&lt;div&gt;({infoJson})&lt;br&gt;&lt;/div&gt;" style="rounded=1;whiteSpace=wrap;html=1;" vertex="1" parent="1">
          <mxGeometry x="450" y="580" width="100" height="40" as="geometry" />
        </mxCell>
        <mxCell id="AW4RBXtIGRO_C34-2rIb-92" value="&lt;div&gt;&amp;lt;SongInfoLink/&amp;gt;&lt;/div&gt;&lt;div&gt;({infoJson})&lt;br&gt;&lt;/div&gt;" style="rounded=1;whiteSpace=wrap;html=1;" vertex="1" parent="1">
          <mxGeometry x="460" y="590" width="100" height="40" as="geometry" />
        </mxCell>
        <mxCell id="AW4RBXtIGRO_C34-2rIb-97" style="edgeStyle=orthogonalEdgeStyle;rounded=0;orthogonalLoop=1;jettySize=auto;html=1;exitX=1;exitY=0.5;exitDx=0;exitDy=0;entryX=0;entryY=0.5;entryDx=0;entryDy=0;" edge="1" parent="1" source="AW4RBXtIGRO_C34-2rIb-93" target="AW4RBXtIGRO_C34-2rIb-96">
          <mxGeometry relative="1" as="geometry" />
        </mxCell>
        <mxCell id="AW4RBXtIGRO_C34-2rIb-101" style="edgeStyle=orthogonalEdgeStyle;rounded=0;orthogonalLoop=1;jettySize=auto;html=1;exitX=1;exitY=0.5;exitDx=0;exitDy=0;entryX=0;entryY=0.5;entryDx=0;entryDy=0;" edge="1" parent="1" source="AW4RBXtIGRO_C34-2rIb-93" target="AW4RBXtIGRO_C34-2rIb-100">
          <mxGeometry relative="1" as="geometry" />
        </mxCell>
        <mxCell id="AW4RBXtIGRO_C34-2rIb-102" value="&lt;div&gt;song album&lt;/div&gt;" style="edgeLabel;html=1;align=center;verticalAlign=middle;resizable=0;points=[];" vertex="1" connectable="0" parent="AW4RBXtIGRO_C34-2rIb-101">
          <mxGeometry x="0.1739" y="3" relative="1" as="geometry">
            <mxPoint y="1" as="offset" />
          </mxGeometry>
        </mxCell>
        <mxCell id="AW4RBXtIGRO_C34-2rIb-93" value="&amp;lt;IconLine/&amp;gt;" style="rounded=1;whiteSpace=wrap;html=1;" vertex="1" parent="1">
          <mxGeometry x="195" y="595" width="80" height="30" as="geometry" />
        </mxCell>
        <mxCell id="AW4RBXtIGRO_C34-2rIb-96" value="&lt;div&gt;album icon&lt;/div&gt;" style="text;html=1;strokeColor=none;fillColor=none;align=center;verticalAlign=middle;whiteSpace=wrap;rounded=0;" vertex="1" parent="1">
          <mxGeometry x="335" y="610" width="60" height="30" as="geometry" />
        </mxCell>
        <mxCell id="AW4RBXtIGRO_C34-2rIb-100" value="&lt;div&gt;&amp;lt;SongInfoLink/&amp;gt;&lt;/div&gt;&lt;div&gt;({infoJson})&lt;br&gt;&lt;/div&gt;" style="rounded=1;whiteSpace=wrap;html=1;" vertex="1" parent="1">
          <mxGeometry x="355" y="650" width="100" height="40" as="geometry" />
        </mxCell>
        <mxCell id="AW4RBXtIGRO_C34-2rIb-106" style="edgeStyle=orthogonalEdgeStyle;rounded=0;orthogonalLoop=1;jettySize=auto;html=1;exitX=1;exitY=0.5;exitDx=0;exitDy=0;entryX=0.5;entryY=0;entryDx=0;entryDy=0;" edge="1" parent="1" source="AW4RBXtIGRO_C34-2rIb-103" target="AW4RBXtIGRO_C34-2rIb-105">
          <mxGeometry relative="1" as="geometry" />
        </mxCell>
        <mxCell id="AW4RBXtIGRO_C34-2rIb-108" style="edgeStyle=orthogonalEdgeStyle;rounded=0;orthogonalLoop=1;jettySize=auto;html=1;exitX=1;exitY=0.5;exitDx=0;exitDy=0;entryX=0.25;entryY=0;entryDx=0;entryDy=0;" edge="1" parent="1" source="AW4RBXtIGRO_C34-2rIb-103" target="AW4RBXtIGRO_C34-2rIb-107">
          <mxGeometry relative="1" as="geometry" />
        </mxCell>
        <mxCell id="AW4RBXtIGRO_C34-2rIb-103" value="&amp;lt;IconLine/&amp;gt;" style="rounded=1;whiteSpace=wrap;html=1;" vertex="1" parent="1">
          <mxGeometry x="130" y="650" width="80" height="30" as="geometry" />
        </mxCell>
        <mxCell id="AW4RBXtIGRO_C34-2rIb-104" style="edgeStyle=orthogonalEdgeStyle;rounded=0;orthogonalLoop=1;jettySize=auto;html=1;exitX=0.5;exitY=1;exitDx=0;exitDy=0;entryX=0.375;entryY=0;entryDx=0;entryDy=0;entryPerimeter=0;" edge="1" parent="1" source="AW4RBXtIGRO_C34-2rIb-76" target="AW4RBXtIGRO_C34-2rIb-103">
          <mxGeometry relative="1" as="geometry" />
        </mxCell>
        <mxCell id="AW4RBXtIGRO_C34-2rIb-105" value="date icon" style="text;html=1;strokeColor=none;fillColor=none;align=center;verticalAlign=middle;whiteSpace=wrap;rounded=0;" vertex="1" parent="1">
          <mxGeometry x="220" y="690" width="60" height="30" as="geometry" />
        </mxCell>
        <mxCell id="AW4RBXtIGRO_C34-2rIb-107" value="&lt;div&gt;song.releaseDate&lt;/div&gt;" style="text;html=1;strokeColor=none;fillColor=none;align=center;verticalAlign=middle;whiteSpace=wrap;rounded=0;" vertex="1" parent="1">
          <mxGeometry x="275" y="690" width="90" height="30" as="geometry" />
        </mxCell>
        <mxCell id="AW4RBXtIGRO_C34-2rIb-114" style="edgeStyle=orthogonalEdgeStyle;rounded=0;orthogonalLoop=1;jettySize=auto;html=1;exitX=0.5;exitY=1;exitDx=0;exitDy=0;entryX=0.5;entryY=0;entryDx=0;entryDy=0;" edge="1" parent="1" source="AW4RBXtIGRO_C34-2rIb-109" target="AW4RBXtIGRO_C34-2rIb-112">
          <mxGeometry relative="1" as="geometry" />
        </mxCell>
        <mxCell id="AW4RBXtIGRO_C34-2rIb-122" style="edgeStyle=orthogonalEdgeStyle;rounded=0;orthogonalLoop=1;jettySize=auto;html=1;exitX=0.75;exitY=1;exitDx=0;exitDy=0;entryX=0.25;entryY=0;entryDx=0;entryDy=0;" edge="1" parent="1" source="AW4RBXtIGRO_C34-2rIb-109" target="AW4RBXtIGRO_C34-2rIb-121">
          <mxGeometry relative="1" as="geometry" />
        </mxCell>
        <mxCell id="AW4RBXtIGRO_C34-2rIb-123" value="&lt;div&gt;song genres&lt;/div&gt;" style="edgeLabel;html=1;align=center;verticalAlign=middle;resizable=0;points=[];" vertex="1" connectable="0" parent="AW4RBXtIGRO_C34-2rIb-122">
          <mxGeometry x="0.2615" y="5" relative="1" as="geometry">
            <mxPoint as="offset" />
          </mxGeometry>
        </mxCell>
        <mxCell id="AW4RBXtIGRO_C34-2rIb-109" value="&amp;lt;IconLine/&amp;gt;" style="rounded=1;whiteSpace=wrap;html=1;" vertex="1" parent="1">
          <mxGeometry x="30" y="650" width="80" height="30" as="geometry" />
        </mxCell>
        <mxCell id="AW4RBXtIGRO_C34-2rIb-112" value="&lt;div&gt;genre icon&lt;/div&gt;" style="text;html=1;strokeColor=none;fillColor=none;align=center;verticalAlign=middle;whiteSpace=wrap;rounded=0;" vertex="1" parent="1">
          <mxGeometry x="10" y="700" width="60" height="30" as="geometry" />
        </mxCell>
        <mxCell id="AW4RBXtIGRO_C34-2rIb-121" value="&lt;div&gt;&amp;lt;SongInfoLink/&amp;gt;&lt;/div&gt;&lt;div&gt;({infoJson})&lt;br&gt;&lt;/div&gt;" style="rounded=1;whiteSpace=wrap;html=1;" vertex="1" parent="1">
          <mxGeometry x="80" y="730" width="100" height="40" as="geometry" />
        </mxCell>
        <mxCell id="AW4RBXtIGRO_C34-2rIb-124" value="&lt;div&gt;&amp;lt;SongInfoLink/&amp;gt;&lt;/div&gt;&lt;div&gt;({infoJson})&lt;br&gt;&lt;/div&gt;" style="rounded=1;whiteSpace=wrap;html=1;" vertex="1" parent="1">
          <mxGeometry x="90" y="740" width="100" height="40" as="geometry" />
        </mxCell>
        <mxCell id="AW4RBXtIGRO_C34-2rIb-125" value="&lt;div&gt;&amp;lt;SongInfoLink/&amp;gt;&lt;/div&gt;&lt;div&gt;({infoJson})&lt;br&gt;&lt;/div&gt;" style="rounded=1;whiteSpace=wrap;html=1;" vertex="1" parent="1">
          <mxGeometry x="100" y="750" width="100" height="40" as="geometry" />
        </mxCell>
        <mxCell id="AW4RBXtIGRO_C34-2rIb-130" style="edgeStyle=orthogonalEdgeStyle;rounded=0;orthogonalLoop=1;jettySize=auto;html=1;exitX=1;exitY=0.5;exitDx=0;exitDy=0;entryX=0;entryY=0.5;entryDx=0;entryDy=0;" edge="1" parent="1" source="AW4RBXtIGRO_C34-2rIb-127" target="AW4RBXtIGRO_C34-2rIb-129">
          <mxGeometry relative="1" as="geometry" />
        </mxCell>
        <mxCell id="AW4RBXtIGRO_C34-2rIb-132" style="edgeStyle=orthogonalEdgeStyle;rounded=0;orthogonalLoop=1;jettySize=auto;html=1;exitX=0.5;exitY=1;exitDx=0;exitDy=0;entryX=0.5;entryY=0;entryDx=0;entryDy=0;" edge="1" parent="1" source="AW4RBXtIGRO_C34-2rIb-127" target="AW4RBXtIGRO_C34-2rIb-131">
          <mxGeometry relative="1" as="geometry">
            <Array as="points">
              <mxPoint x="80" y="850" />
              <mxPoint x="230" y="850" />
              <mxPoint x="230" y="740" />
              <mxPoint x="305" y="740" />
            </Array>
          </mxGeometry>
        </mxCell>
        <mxCell id="AW4RBXtIGRO_C34-2rIb-127" value="&amp;lt;IconLine/&amp;gt;" style="rounded=1;whiteSpace=wrap;html=1;" vertex="1" parent="1">
          <mxGeometry x="40" y="800" width="80" height="30" as="geometry" />
        </mxCell>
        <mxCell id="AW4RBXtIGRO_C34-2rIb-129" value="&lt;div&gt;popularity icon&lt;/div&gt;" style="text;html=1;strokeColor=none;fillColor=none;align=center;verticalAlign=middle;whiteSpace=wrap;rounded=0;" vertex="1" parent="1">
          <mxGeometry x="160" y="800" width="60" height="30" as="geometry" />
        </mxCell>
        <mxCell id="AW4RBXtIGRO_C34-2rIb-131" value="&lt;div&gt;&amp;lt;PopularityBar/&amp;gt;&lt;/div&gt;&lt;div&gt;({popularity})&lt;br&gt;&lt;/div&gt;" style="rounded=1;whiteSpace=wrap;html=1;" vertex="1" parent="1">
          <mxGeometry x="245" y="760" width="120" height="60" as="geometry" />
        </mxCell>
      </root>
    </mxGraphModel>
  </diagram>
</mxfile>
